<svg xmlns="http://www.w3.org/2000/svg" xmlns:xlink="http://www.w3.org/1999/xlink" width="232" height="114" viewBox="0 0 232 114"><svg width="153" height="60" viewBox="-5 -5 153 60" id="logo-white" y="0"><title>Group</title><defs><path id="a" d="M0 0h50.659v32.721H0z"></path><path id="c" d="M0 0h20.707v21.786H0z"></path></defs><g fill="none" fill-rule="evenodd"><path d="M29.545 38.693a1.287 1.287 0 0 1-.222.665.997.997 0 0 1-.809.421 1 1 0 0 1-.87-.492c-.127-.199-.168-.445-.186-.752a2.378 2.378 0 0 1-.003-.229c.025-.284.096-.481.222-.664a.997.997 0 0 1 .809-.421 1 1 0 0 1 .87.492c.127.199.168.445.186.752.005.081.006.157.003.228m.452-.28l-.003-.059a1.43 1.43 0 0 0-.01-.086l-.007-.04a1.594 1.594 0 0 0-.025-.117 1.48 1.48 0 0 0-.295-.574 1.508 1.508 0 0 0-1.18-.537 1.477 1.477 0 0 0-1.367.933 1.498 1.498 0 0 0-.108.537l-.002.025v.04c0 .018.002.035.003.052 0 .02.002.04.003.059l.01.086.007.04c.006.035.013.07.022.104l.003.013c.057.218.16.41.295.573.26.315.67.537 1.18.538a1.48 1.48 0 0 0 1.367-.934c.065-.159.103-.337.108-.536l.002-.026v-.018-.022l-.003-.051M29.966 23.018c-.063.003-.287.025-.519.043h-.034a27.835 27.835 0 0 0-.204.004h-1.385a4.105 4.105 0 0 1-.203-.003 2.248 2.248 0 0 1-.039-.002c-.329-.005-.51-.056-.51-.056s-.095-.023-.067.044v.34c0 .014.015.023.03.02.423-.05.81-.073 1.188-.079.01 0 .018.007.018.016v1.86c0 .116-.001.217-.004.303s-.008.16-.015.222a1.795 1.795 0 0 1-.043.248c-.003.011.008.022.022.022h.575c.014 0 .025-.01.022-.022a1.434 1.434 0 0 1-.044-.248 5.025 5.025 0 0 1-.02-.524v-1.861c0-.009.008-.015.018-.015.643.011 1.091.063 1.218.078.017.002.032-.01.03-.024-.008-.066 0-.283 0-.29-.01-.054-.002-.073-.034-.076M29.972 11.566c-.092.038-.21.066-.335.089-.054.008-.36.04-.627.046l-.478-.006c-.01 0-.02-.009-.02-.019v-1.093c0-.01.008-.017.018-.017.318-.011.873-.002 1.094.003.057.001.078-.02.084-.038v-.001c.012-.099.052-.175.06-.244.002-.019-.034-.071-.09-.05-.043.024-.088.029-.138.036-.213.015-.642.024-.92.032l-.088.003c-.01 0-.02-.007-.02-.017V9.317c0-.012.011-.023.024-.023.096-.005.24-.004.33-.009.046-.002.507-.005.599 0a2.689 2.689 0 0 1 .383.054.02.02 0 0 0 .023-.011c.017-.044.068-.245.09-.303.006-.013-.005-.027-.02-.025a2.592 2.592 0 0 1-.186.012c-.108.004-.237.007-.389.01l-.578.005-.512.001c-.105-.001-.205-.022-.205-.022-.032-.01-.055-.004-.066.016-.008.014-.006.048.005.103 0 0 .05.134.057.311l.004.094c.003.088.005.19.005.306v1.342c0 .117-.002.219-.005.306a3.924 3.924 0 0 1-.013.226 1.757 1.757 0 0 1-.041.252c-.003.011.007.022.02.022l.501-.004 1.372.02a.02.02 0 0 0 .02-.015l.07-.399c.003-.015-.013-.026-.028-.02M28.891 29.548l.004-.055c.029-.198.063-.345.104-.44.004-.008-.005-.016-.02-.02a.501.501 0 0 0-.103-.01l-.087.005c-.532.02-.665-.01-.691-.02l-.006-.001c-.04-.015-.053 0-.053 0l-.03.028s-.019.015-.002.023a.042.042 0 0 1 .011.015 1.98 1.98 0 0 1 .1.475 5.3 5.3 0 0 1 .008.302v1.354a5.3 5.3 0 0 1-.007.303c-.005.086-.013.16-.024.222a1.23 1.23 0 0 1-.034.157c-.008.027-.023.067-.033.092-.004.011.012.022.034.022h.889c.022 0 .038-.01.034-.022a.93.93 0 0 1-.07-.248 3.591 3.591 0 0 1-.032-.526V29.85v-.058-.04h.002c0-.075.003-.143.006-.204M29.966 2.007h-.056l-.367.006L29.487 2a.045.045 0 0 0-.054.034l-.012.053c-.005.017-.03.08-.161.267l-.677.97a.02.02 0 0 1-.033.001l-.714-.934c-.175-.23-.204-.304-.208-.321l-.001-.004-.007-.032A.045.045 0 0 0 27.566 2l-.057.012-.425-.006c-.066 0-.083.055-.083.055-.004.013.012.02.012.02a.524.524 0 0 1 .184.135c.032.037.065.076.099.12l.939 1.219a.184.184 0 0 1 .038.112v.516a7.717 7.717 0 0 1-.019.538 1.609 1.609 0 0 1-.04.255c-.002.012.007.023.02.023h.558c.012 0 .022-.01.02-.023a1.745 1.745 0 0 1-.04-.255 4.11 4.11 0 0 1-.015-.228 9.783 9.783 0 0 1-.004-.31v-.56c0-.04.013-.077.037-.11l.872-1.173a2.075 2.075 0 0 1 .12-.15.954.954 0 0 1 .198-.15c.052-.032-.014-.034-.014-.034M29.976 45.871s-.027-.106-.034-.288a2.979 2.979 0 0 1-.003-.076l-.001-.041v-1.619c0-.118.001-.221.004-.31.004-.088.008-.164.014-.229a2.186 2.186 0 0 1 .044-.275c.002-.012-.008-.023-.02-.023l-.453-.002c-.013 0-.023.01-.02.023l.02.094c.01.043.017.097.023.161.006.065.01.142.013.23.003.088.005.191.005.31l.015 1.41c0 .018-.023.026-.036.013l-1.74-1.747c-.292-.293-.33-.481-.33-.481 0-.01-.01-.019-.02-.019l-.37.002c-.04-.007-.04-.007-.071.014-.025.016-.018.054.003.104 0 0 .057.138.063.32l.004.076c.003.088.004.191.004.31v1.357c0 .118-.001.221-.004.31a3.677 3.677 0 0 1-.014.228 1.67 1.67 0 0 1-.043.254c-.003.012.007.023.02.023l.466-.002c.014 0 .023-.01.02-.023a2.017 2.017 0 0 1-.04-.255 4.153 4.153 0 0 1-.014-.228 9.38 9.38 0 0 1-.004-.31l-.034-1.386c0-.018.023-.026.036-.013l1.849 1.852c.188.19.205.287.206.309v.029c0 .01.01.019.022.019l.194.001h.194c.034-.002.041-.011.053-.032.008-.014-.001-.036-.021-.09M28.27 18.77c-.084.002-.2 0-.339-.005-.012 0-.02-.013-.015-.025l.432-1.01.055-.126c.007-.014.018-.02.028 0l.051.115.444 1.015a.017.017 0 0 1-.015.025c-.21.008-.465.016-.64.01m1.717 1.152a.562.562 0 0 1-.074-.046.322.322 0 0 1-.05-.066l-.069-.142a3.787 3.787 0 0 1-.08-.171l-1.09-2.485A.018.018 0 0 0 28.61 17h-.23a.018.018 0 0 0-.017.01l-1.15 2.578a2.993 2.993 0 0 1-.148.3.224.224 0 0 1-.045.059c-.048.032.01.035.01.035h.413a.028.028 0 0 0 .028-.028v-.046c0-.061.011-.122.034-.182l.065-.165.201-.469.026-.064a.018.018 0 0 1 .016-.01c.194-.003.376 0 .498 0 .216 0 .536 0 .731.005.007 0 .013.005.016.011l.025.058.24.542s.075.17.086.307a.334.334 0 0 1-.003.025.042.042 0 0 0 .05.033l.053-.012.414.007c.062 0 .077-.054.077-.054.004-.014-.011-.02-.011-.02M66.038 19.36c-.77 0-1.583.087-2.438.263-1.326.175-2.783.35-4.366.527V9.685a51.197 51.197 0 0 1-.063-1.907c0-.308-.15-.55-.45-.726-.3 0-.683-.087-1.154-.263 1.497-.175 2.952-.35 4.362-.526a71.86 71.86 0 0 1 4.109-.592V19.36zm19.19-1.515c-.042-1.096-.32-1.646-.833-1.646-1.198.178-4.452.813-9.755 1.909a67.11 67.11 0 0 0-5.65.79c.085-1.273.15-2.413.194-3.421a74.36 74.36 0 0 1 2.053-.793c3.21-1.226 5.326-2.103 6.354-2.63 1.113-.395 1.948-.766 2.504-1.118.811-.308 1.219-.725 1.219-1.251 0-.176-.172-.35-.513-.526a4.865 4.865 0 0 1-1.093-.856c-.855-.484-1.327-.812-1.41-.986h-.322c-1.198 1.579-4.107 3.595-8.729 6.052.17-3.378.299-5.571.384-6.58 0-.35-.105-.635-.32-.855-.857 0-1.583-.089-2.182-.263 1.797-.175 3.787-.353 5.97-.526 2.266-.175 4.47-.33 6.61-.461.513.131.94.197 1.284.197.086 0 .128-.153.128-.46a15.413 15.413 0 0 1-.32-1.909C80.757 1.502 80.586 1 80.285 1c-.425 0-2.781.35-7.059 1.053a869.06 869.06 0 0 1-10.525 1.579c-2.525.526-6.205.943-11.04 1.249-1.583.175-3.06.353-4.427.526H43.83c0 .353.107.724.322 1.119.128.526.277 1.208.448 2.041.086.57.237.854.452.854.383 0 2.243-.46 5.582-1.381a68.692 68.692 0 0 1 4.878-.723c.043.174.086.328.128.461a154.6 154.6 0 0 1 .321 4.275l-.707-.591c-2.865 1.403-5.111 2.478-6.737 3.222-2.182.88-3.425 1.317-3.724 1.317-.128.133-.364.198-.704.198l-.13.265c.171.175.45.437.834.79.386.57.728 1.03 1.026 1.38.13.175.257.33.385.46h.515c.811 0 2.547-.962 5.198-2.895a34.747 34.747 0 0 0 4.044-3.881 137 137 0 0 1 .258 8.422c-2.312.177-2.726.171-5.463.524-2.096.305-3.68.459-4.75.459-1.711.176-3.337.263-4.878.263L41 22.25c.171.394.407 1.03.706 1.907.47 1.23.791 1.844.963 1.844.47 0 1.347-.196 2.631-.592 1.069-.351 2.91-.769 5.52-1.252 2.739-.526 3.666-.804 7.003-1.376 6.717-1.009 14.097-1.688 22.143-2.04 3.081 0 5.027.09 5.841.264.128 0 .193-.087.193-.264-.3-.747-.557-1.711-.772-2.895z" fill="#FEFEFE"></path><path d="M52.819 26.819c-.209-.23-.362-.306-.512-.468-.602-.605-1.201-.815-1.38-1.351l-.482.084-.179.76c-.25 1.06-.275 1.35-2.424 6.55-1.22 2.744-2.46 5.21-3.724 7.405-2.603 4.328-5.306 7.602-8.111 9.822-.04.17.105.294.438.376 2.567.092 5.123-1.783 7.99-5.233 4.307-5.182 8.014-13.913 8.206-14.229.568-.944 1.18-1.814 1.34-2.492.03-.125.024-.194-.018-.204-.409-.505-.583-.493-1.144-1.02M117.43 24.318a8.664 8.664 0 0 1-.929-.684c-.164-.138-.335-.197-.476-.282-.259-.185-.614-.352-.877-.352-.125 0-.193.423-.193.437 0 .554-.012 1.715-1.154 4.38-.717 1.67-1.321 2.296-2.195 3.201-1.851 1.922-3.19 2.109-5.606 3.542 0 .294.177.44.532.44 2.701-.143 4.692-.383 6.19-1.587 1.717-1.398 2.56-2.403 3.88-5.402 1.129-1.984 1.398-2.602 1.398-2.963 0-.261-.201-.494-.57-.73M138.908 34.071a82.39 82.39 0 0 1-1.093-5.003c-.138-.135-.26-.204-.364-.204a94.927 94.927 0 0 1-.311 5.207c-.07 1.065-.262 1.89-.573 2.474-.208.276-.677.482-1.404.618-.764.243-2.186.363-4.267.363-4.092-.139-6.19-1.428-6.295-3.868.242-3.472.676-6.703 1.301-9.695-.105-.135-.192-.205-.26-.205a16.333 16.333 0 0 0-2.212-.6c-.386-.043-.408-.158-.687-.158a.382.382 0 0 0-.35.5c.062.5.076.859.076 1.496-.314 5.226-.469 8.387-.469 9.487 0 3.68 3.747 5.517 11.237 5.517 4.508 0 6.763-.465 6.763-1.393-.104-.858-.467-2.37-1.092-4.536" fill="#FEFEFE"></path><path d="M129.017 22.272c2.019-.141 3.956-.088 5.811-.268.39.18.733.268 1.026.268.097 0 .146-.16.146-.48-.13-.393-.227-1.087-.293-1.657-.034-.997-.178-1.493-.439-1.493-.358 0-2.41.264-6.153.798-2.638.32-5.463.504-7.448.644.065-2.99.144-5.62.24-8.076 1.335-.107 3.43-.276 5.253-.42a31.37 31.37 0 0 1 3.567-.213c.39 0 .749.194 1.024.138.152-.03.13-.207.1-.351a9.804 9.804 0 0 1-.295-1.551c-.033-.818-.164-1.315-.39-1.495-.23 0-1.514.304-3.858.91-1.856.284-3.965.502-5.3.75.067-1.957.114-3.383.147-4.273.065-.675.147-1.53.243-2.563.163-.392.262-.964.294-1.71a1.33 1.33 0 0 0-.34-.428c-.165 0-.425-.07-.783-.213-1.335-.25-2.181-.443-2.539-.589l-.145.215c.225.996.404 2.83.535 5.502 0 1.568-.016 3.062-.049 4.487-1.172.144-1.258.364-2.952.544-.88.14-1.655.221-2.37.362h-.05c.36-.887.635-1.599.83-2.135.326-.89.57-1.478.734-1.763.291-.392.439-.66.439-.8 0-.287-.244-.428-.73-.428a12.973 12.973 0 0 1-1.467-.908c-.782-.391-1.238-.66-1.368-.801-.065 0-.146.072-.244.214.098.249.146.516.146.8 0 1.852-.506 4.273-1.514 7.265-.26 1.283-1.4 3.49-3.418 6.624 0 .143.13.212.39.212h.586c.651-.283 1.905-1.848 3.76-4.697.196-.43.392-.838.588-1.23.064.392.162.588.292.588.196 0 1.196-.195 3.018-.728 1.663-.287 1.865-.585 3.33-.906v7.979c-2.18.284-3.88.63-8.014.878-1.366.142-2.19.173-3.427.254-1.723.113-2.704.073-2.93.214 0 .18.065.48.195.908.098.285.226.765.39 1.443.065.606.18.907.343.907.357 0 1.51-.3 4.409-.907 1.822-.285 3.096-.402 3.96-.528.86-.125 1.697-.193 2.34-.274 1.237-.141 2.047-.285 3.188-.427.911-.142 7.206-.592 9.192-.592M99.039 6c1.043-1.716 1.46-2.695 1.552-3.776l.477-.224c.442.221.648.4 1.527.561.65.12 1.158.212 1.531.277.433.079.696.214.792.408.174.345.071.677-.309.996-.877 1.073-1.984 2.181-3.317 3.328-1.214 1.09-2.696 2.233-4.442 3.43a4.82 4.82 0 0 1-.85-.381c.74-.961 1.755-2.499 3.039-4.619" fill="#FEFEFE"></path><g transform="translate(92 14)"><mask id="b" fill="#fff"><use xlink:href="#a"></use></mask><path d="M27.15 26.301c-2.216-.436-7.315-1.3-8.058-1.465-4.707-.943-7.654-1.52-9.717-1.888.41-.328 1.687-2.17 2.348-3.031.783-.943 1.175-1.762 1.175-2.458 0-.616-.535-1.251-1.61-1.909a76.241 76.241 0 0 1-2.6-1.965c-1.115-.699-1.672-1.209-1.672-1.538 0-.45.35-1.187 1.054-2.212.206-.43.795-1.614.795-1.614 1.45-2.918 2.819-4.549 3.47-5.024.2.005.304-.11.309-.342 0-.132-.491-.625-1.48-1.476C10.374.6 9.883.143 9.682.004a25.17 25.17 0 0 0-.3-.004c-.14.261-.262.526-.367.79-3.696.562-1.956.29-5.393.714-2.166.27-1.203.147-3.211.137-.271-.006-.405.125-.411.393.193.436.402.855.63 1.258.25.803.429 1.185.528 1.207.273.064.802-.269 3.864-.726 2.133-.317 2.538-.34 3.13-.337-.627 1.958-1.562 3.13-2.343 4.848 0 0-.666 1.533-1.242 2.236-1.198.657-1.318 1.452-1.318 1.905 0 .531.411.962 1.237 1.29.784.328 1.208.67 2.035 1.284 1.031.86 2.292 1.695 2.91 3.172 0 .542-.745 1.568-1.658 2.6-.188.215-1.012 1.133-1.291 1.376a9.17 9.17 0 0 1-1.233.917c-1.65.945-2.685 1.914-4.172 2.076-.33.207-.494.473-.494.8.698.706.97.99 1.711 2.018.538 1.056.902 1.624 1.234 1.624.286 0 .762-.388 1.423-1.17 1.983-2.498 2.54-3.084 3.242-3.084 1.073 0 6.853 1.087 17.34 3.26 3.838.82 5.307 1.108 8.962 2.473 2.807 1.107 4.665 1.66 5.573 1.66a28.009 28.009 0 0 0 2.477-.675c.784-.164 1.9-.493 3.345-.985 2.93-1.024 4.396-1.596 4.396-1.72.248-.163.373-.41.373-.74-5.147-.198-8.761-.018-15.238-.855-3.22-.415-5.38-.932-8.272-1.445" fill="#FEFEFE" mask="url(#b)"></path></g><path d="M19.954 3.648c.08-.148.031-.331.031-.407 0-.077-.165-.195-.425-.386a2.939 2.939 0 0 1-.607-.568c-.093-.13-.201-.287-.397-.287-.189 0-.75.208-1.988.445-2.237.43-4.148.77-5.663.92-1.766.248-3.263.448-4.495.598-.433.065-2.569.285-3.601.354-.069-.215-.227-.351-.48-.403A8.746 8.746 0 0 1 1.28 3.55c-.305-.135-.297.238-.265.409.078.454.166 1.122.22 2.012.07 1.057.104 2.273.104 3.649 0 1.6.115 7.776-.054 10.123-.025.38-.17 1.403-.23 1.575 0 .07.122.177.363.322.266.237.572.495.785.713.387.394.54.03.559-.099.02-.159.03-.316.03-.465 0-2.289-.078-8.672-.078-10.908 0-1.053.009-2.093.029-3.111 0-.65.035-1.331.067-2.043 1.425-.148 14.156-1.893 15.006-1.967l.229.228c.13 8.814.221 14.143.221 16.118-.02.21-.133.315-.342.315-.98 0-1.835-.137-2.645-.234-.096-.01-.267-.045-.312.064-.05.117-.017.192.042.25.038.04.286.18.363.213.714.345 1.408.685 2.076 1.03 1.582.828 1.458 1.224 2.054 1.256.244 0 .39-.268.39-.572-.17-7.825-.3-13.526-.256-17.323.01-.702.264-1.361.318-1.457" fill="#FEFEFE"></path><path d="M10.48 17.149c.066-.14.183-.318.31-.604.149-.315.183-.411.203-.486.057-.271-.269-.36-.323-.442-.626-.93-1.202-1.833-1.829-2.515.256-.74.502-1.59.735-2.552.257-1.188.426-2.011.515-2.504.05-.285.084-.292.117-.546.019-.141-.191-.238-.483-.313 0 0-1.117-.347-1.207-.095-.026.065.056.368.056.439a21.875 21.875 0 0 1-.754 4.574c-.978-.903-1.964-1.584-2.96-2.048-.034-.016-.257-.108-.358-.026-.112.091-.02.234.013.265.998 1.029 1.942 1.938 2.857 3.139a15.86 15.86 0 0 1-3.27 5.254c-.213.228-.057.352.14.299 2.32-.684 3.917-4.223 4.025-4.424.845 1.131 1.345 1.935 1.648 2.545.215.431.504.17.565.04" fill="#FEFEFE"></path><path d="M16.439 18.29c.08-.162.197-.42.351-.775.117-.312.17-.459.188-.532.043-.13.034-.267-.123-.355a.428.428 0 0 1-.144-.169c-.873-1.519-1.656-2.639-2.605-3.694.614-2.373.89-4.396 1.016-4.986.132-.6.245-.95.245-1.108 0-.102-.064-.186-.192-.253-.057-.03-.798-.357-.967-.396-.174-.04-.375-.04-.463.126-.027.053.031.229.031.356-.094 1.85-.321 3.542-.682 5.08a11.489 11.489 0 0 0-2.76-2.089c-.085-.047-.403-.197-.494-.012-.109.223.382.69.47.776a21.74 21.74 0 0 1 2.385 2.751c-.789 2.539-1.991 4.748-3.6 6.633-.18.213-.077.402.083.348 2.517-.769 4.25-5.207 4.421-5.7 1.273 1.656 2.078 3.093 2.443 3.932.136.312.35.163.397.067" fill="#FEFEFE"></path><g transform="translate(0 27)"><mask id="d" fill="#fff"><use xlink:href="#c"></use></mask><path d="M5.644 8.143v-1.9c1.06-.245 3.133-.459 4.09-.59 1.199-.148 3.041-.393 3.961-.467.22 0 .415-.008.615.065.26.06.373-.195.351-.277-.086-.301-.315-.612-.434-1.043-.04-.076-.144-.157-.39-.112-1.006.18-3.165.552-4.461.683-1 .149-3.7.403-3.7.326 0-.503.051-.841.071-1.365 0-.225-.18-.376-.54-.45a.4.4 0 0 0-.068-.07c.068-.013.145-.025.217-.042h.002c.84-.167 2.92-.393 4.12-.616 2.214-.282 4.953-.56 5.87-.56.078.075.18.186.3.336-.04 2.003-.103 3.268-.103 4.934-.739.072-3.405.4-5.66.7-1.519.204-3.64.372-4.24.448m14.731 3.304c-.359-.281-.614-.472-1.017-.86-.237-.23-.414-.533-1.126-.318-.251.078-.582.119-.97.203-1.24.245-2.906.44-4.082.591-1.9.224-4.157.441-6.771.644.138-.15.28-.288.418-.42.64-.616.98-1.014 1.138-1.092.259-.13.36-.293.36-.367 0-.15-.038-.264-.12-.336-.119-.095-.3-.267-.4-.342.5-.15 6.242-.82 7.44-.82a.81.81 0 0 1-.06.167c-.02.038.04.093.18.17.1 0 .348.104.749.308.2.15.319.225.359.225.239 0 .36-.665.36-1.994.039-.466.13-4.792.22-5.31.013-.076.007-.194.058-.337.04-.105.09-.177.09-.251 0-.15-.088-.247-.238-.337-.138-.087-.229-.184-.528-.407-.459-.319-.454-.545-.758-.563-.321-.018-1.128.384-2.666.701-2.918.521-6.067.94-8.008 1.149-1.053.091-2.081.154-2.332.154 0 0-.12.006-.115.123l-.006.005.006.01c.003.01-.002.013.003.024.035.137.191.299.292.59.157.41.265.614.321.614.113 0 .257-.034.507-.101.05-.014.222-.057.426-.105.038.215.075.454.114.718.06.544.048.938.048 1.686 0 1.42-.11 3.087-.21 3.161 0 .152.416.744.655.876.738-.176 1.654-.284 1.938-.332-.48.6-1.588 1.901-2.608 2.797A17.779 17.779 0 0 1 0 14.88c0 .13.148.197.448.197 1.4-.131 2.707-.683 3.924-1.657.2-.15.44-.346.72-.589.02.076.043.135.062.229.04.226.17.338.39.338.38 0 .473-.148 1.25-.262.364-.056 1.339-.206 1.679-.206-.06.096-.132.18-.21.253-.498.58-1.278 1.32-2.336 2.219a18.623 18.623 0 0 1-4.132 2.72c0 .152.127.225.388.225 1.439-.149 2.775-.71 4.015-1.683.637-.451 1.486-1.123 2.544-2.022.638-.598 1.018-.973 1.138-1.121.24-.15.359-.3.359-.45a.407.407 0 0 0-.09-.255c-.077-.07-.148-.11-.208-.11.917-.13 1.72-.259 2.879-.408.339-.075.99-.129 1.312-.129-.142.224-.342.525-.601.897-.582.822-1.498 1.9-2.756 3.229a20.543 20.543 0 0 1-4.971 4.07c0 .149.13.222.39.222 1.17-.154 2.251-.668 3.355-1.372 1.952-1.241 3.789-3.572 4.403-4.352.736-.898 1.186-1.46 1.345-1.684.3-.318.452-.543.452-.674 0-.15-.031-.261-.09-.336a1.5 1.5 0 0 1-.33-.226c1.477-.168 2.511-.235 2.831-.235.2.078.388.233.567.478-.225 1.196-1.586 4.096-2.285 5.441-.716 1.275-1.317 1.91-1.795 1.91-.303 0-1.09-.31-1.753-.702-.039-.023-.318-.173-.449-.061-.132.11.037.301.071.342.138.164.288.322.453.491.27.284 1.282 1.402 1.44 1.601.24.296.263.545.535.574.675.077 1.608-.674 2.427-2.47.4-.823.87-1.842 1.409-3.059.59-1.298 1.014-2.31 1.315-2.933.195-.408.612-.867.612-1.359 0-.093-.111-.362-.33-.513" fill="#FEFEFE" mask="url(#d)"></path></g></g></svg><svg width="232" height="54" viewBox="-5 -5 232 54" id="logo-with-txt" y="60"><title>Page 1</title><defs><path id="a" d="M.135.177h45.692v29.747H.135z"></path><path id="c" d="M0 .02h18.734v19.806H0z"></path></defs><g fill="none" fill-rule="evenodd"><path d="M26.545 34.693a1.287 1.287 0 0 1-.222.665.997.997 0 0 1-.809.421 1 1 0 0 1-.87-.492c-.127-.199-.168-.445-.186-.752a2.378 2.378 0 0 1-.003-.229c.025-.284.096-.481.222-.664a.997.997 0 0 1 .809-.421 1 1 0 0 1 .87.492c.127.199.168.445.186.752.005.081.006.157.003.228m.452-.28l-.003-.059a1.43 1.43 0 0 0-.01-.086l-.007-.04a1.594 1.594 0 0 0-.025-.117 1.48 1.48 0 0 0-.295-.574 1.508 1.508 0 0 0-1.18-.537 1.477 1.477 0 0 0-1.367.933 1.498 1.498 0 0 0-.108.537l-.002.025v.04c0 .018.002.035.003.052 0 .02.002.04.003.059l.01.086.007.04c.006.035.013.07.022.104l.003.013c.057.218.16.41.295.573.26.315.67.537 1.18.538a1.48 1.48 0 0 0 1.367-.934c.065-.159.103-.337.108-.536l.002-.026v-.018-.022l-.003-.051M26.966 21.018c-.063.003-.287.025-.519.043h-.034a27.835 27.835 0 0 0-.204.004h-1.385a4.105 4.105 0 0 1-.203-.003 2.248 2.248 0 0 1-.039-.002c-.329-.005-.51-.056-.51-.056s-.095-.023-.067.044v.34c0 .014.015.023.03.02.423-.05.81-.073 1.188-.079.01 0 .018.007.018.016v1.86c0 .116-.001.217-.004.303s-.008.16-.015.222a1.795 1.795 0 0 1-.043.248c-.003.011.008.022.022.022h.575c.014 0 .025-.01.022-.022a1.434 1.434 0 0 1-.044-.248 5.025 5.025 0 0 1-.02-.524v-1.861c0-.009.008-.015.018-.015.643.011 1.091.063 1.218.078.017.002.032-.01.03-.024-.008-.066 0-.283 0-.29-.01-.054-.002-.073-.034-.076M26.972 10.566c-.092.038-.21.066-.335.089-.054.008-.36.04-.627.046l-.478-.006c-.01 0-.02-.009-.02-.019V9.583c0-.01.008-.017.018-.017.318-.011.873-.002 1.094.003.057.001.078-.02.084-.038V9.53c.012-.099.052-.175.06-.244.002-.019-.034-.071-.09-.05-.043.024-.088.029-.138.036-.213.015-.642.024-.92.032a8.58 8.58 0 0 0-.088.003c-.01 0-.02-.007-.02-.017V8.317c0-.012.011-.023.024-.023.096-.005.24-.004.33-.009.046-.002.507-.005.599 0a2.689 2.689 0 0 1 .383.054.02.02 0 0 0 .023-.011c.017-.044.068-.245.09-.303.006-.013-.005-.027-.02-.025a2.592 2.592 0 0 1-.186.012c-.108.004-.237.007-.389.01l-.578.005-.512.001c-.105-.001-.205-.022-.205-.022-.032-.01-.055-.004-.066.016-.008.014-.006.048.005.103 0 0 .05.134.057.311l.004.094c.003.088.005.19.005.306v1.342c0 .117-.002.219-.005.306a3.924 3.924 0 0 1-.013.226 1.757 1.757 0 0 1-.041.252c-.003.011.007.022.02.022l.501-.004 1.372.02a.02.02 0 0 0 .02-.015l.07-.399c.003-.015-.013-.026-.028-.02M25.891 26.548l.004-.055c.029-.198.063-.345.104-.44.004-.008-.005-.016-.02-.02a.501.501 0 0 0-.103-.01l-.087.005c-.532.02-.665-.01-.691-.02l-.006-.001c-.04-.015-.053 0-.053 0l-.03.028s-.019.015-.002.023a.042.042 0 0 1 .011.015 1.98 1.98 0 0 1 .1.475 5.3 5.3 0 0 1 .008.302v1.354a5.3 5.3 0 0 1-.007.303c-.005.086-.013.16-.024.222a1.23 1.23 0 0 1-.034.157c-.008.027-.023.067-.033.092-.004.011.012.022.034.022h.889c.022 0 .038-.01.034-.022a.93.93 0 0 1-.07-.248 3.591 3.591 0 0 1-.032-.526V26.85v-.058-.04h.002c0-.075.003-.143.006-.204M26.966 2.007h-.056l-.367.006L26.487 2a.045.045 0 0 0-.054.034l-.012.053c-.005.017-.03.08-.161.267l-.677.97a.02.02 0 0 1-.033.001l-.714-.934c-.175-.23-.204-.304-.208-.321l-.001-.004-.007-.032A.045.045 0 0 0 24.566 2l-.057.012-.425-.006c-.066 0-.083.055-.083.055-.004.013.012.02.012.02a.524.524 0 0 1 .184.135c.032.037.065.076.099.12l.939 1.219a.184.184 0 0 1 .038.112v.516a7.717 7.717 0 0 1-.019.538 1.609 1.609 0 0 1-.04.255c-.002.012.007.023.02.023h.558c.012 0 .022-.01.02-.023a1.745 1.745 0 0 1-.04-.255 4.11 4.11 0 0 1-.015-.228 9.783 9.783 0 0 1-.004-.31v-.56c0-.04.013-.077.037-.11l.872-1.173a2.075 2.075 0 0 1 .12-.15.954.954 0 0 1 .198-.15c.052-.032-.014-.034-.014-.034M26.976 41.871s-.027-.106-.034-.288a2.979 2.979 0 0 1-.003-.076l-.001-.041v-1.619c0-.118.001-.221.004-.31.004-.088.008-.164.014-.229a2.186 2.186 0 0 1 .044-.275c.002-.012-.008-.023-.02-.023l-.453-.002c-.013 0-.023.01-.02.023l.02.094c.01.043.017.097.023.161.006.065.01.142.013.23.003.088.005.191.005.31l.015 1.41c0 .018-.023.026-.036.013l-1.74-1.747c-.292-.293-.33-.481-.33-.481 0-.01-.01-.019-.02-.019l-.37.002c-.04-.007-.04-.007-.071.014-.025.016-.018.054.003.104 0 0 .057.138.063.32l.004.076c.003.088.004.191.004.31v1.357c0 .118-.001.221-.004.31a3.677 3.677 0 0 1-.014.228 1.67 1.67 0 0 1-.043.254c-.003.012.007.023.02.023l.466-.002c.014 0 .023-.01.02-.023a2.017 2.017 0 0 1-.04-.255 4.153 4.153 0 0 1-.014-.228 9.38 9.38 0 0 1-.004-.31l-.034-1.386c0-.018.023-.026.036-.013l1.849 1.852c.188.19.205.287.206.309v.029c0 .01.01.019.022.019l.194.001h.194c.034-.002.041-.011.053-.032.008-.014-.001-.036-.021-.09M25.27 16.77c-.084.002-.2 0-.339-.005-.012 0-.02-.013-.015-.025l.432-1.01.055-.126c.007-.014.018-.02.028 0l.051.115.444 1.015a.017.017 0 0 1-.015.025c-.21.008-.465.016-.64.01m1.717 1.152a.562.562 0 0 1-.074-.046.322.322 0 0 1-.05-.066l-.069-.142a3.787 3.787 0 0 1-.08-.171l-1.09-2.485A.018.018 0 0 0 25.61 15h-.23a.018.018 0 0 0-.017.01l-1.15 2.578a2.993 2.993 0 0 1-.148.3.224.224 0 0 1-.045.059c-.048.032.01.035.01.035h.413a.028.028 0 0 0 .028-.028v-.046c0-.061.011-.122.034-.182l.065-.165.201-.469.026-.064a.018.018 0 0 1 .016-.01c.194-.003.376 0 .498 0 .216 0 .536 0 .731.005.007 0 .013.005.016.011l.025.058.24.542s.075.17.086.307a.334.334 0 0 1-.003.025.042.042 0 0 0 .05.033l.053-.012.414.007c.062 0 .077-.054.077-.054.004-.014-.011-.02-.011-.02M59.256 17.156c-.684 0-1.407.077-2.167.232-1.18.154-2.474.309-3.88.464v-9.21a44.604 44.604 0 0 1-.057-1.677c0-.271-.134-.485-.4-.639-.266 0-.607-.077-1.026-.231 1.331-.155 2.624-.31 3.878-.464a64.482 64.482 0 0 1 3.652-.52v12.045zm17.058-1.333c-.037-.964-.284-1.447-.741-1.447-1.065.155-3.957.715-8.67 1.679-1.637.155-3.31.386-5.023.696.076-1.12.133-2.124.172-3.012.38-.154.989-.387 1.825-.697 2.853-1.079 4.734-1.85 5.648-2.315.99-.347 1.731-.674 2.226-.984.721-.27 1.083-.637 1.083-1.1 0-.155-.152-.309-.455-.463a4.319 4.319 0 0 1-.972-.753c-.76-.426-1.18-.715-1.253-.868h-.287c-1.064 1.39-3.65 3.163-7.758 5.326.15-2.973.265-4.903.34-5.79 0-.31-.093-.56-.284-.753-.761 0-1.407-.078-1.94-.231 1.598-.155 3.367-.311 5.308-.463 2.014-.155 3.974-.29 5.874-.406.457.116.836.173 1.142.173.076 0 .114-.135.114-.405a13.44 13.44 0 0 1-.284-1.68c-.04-.888-.191-1.33-.459-1.33-.378 0-2.472.309-6.275.927a779.791 779.791 0 0 1-9.355 1.389c-2.245.463-5.516.83-9.814 1.1-1.407.153-2.719.31-3.935.462h-3.026c0 .311.096.638.287.985.114.463.246 1.062.398 1.796.076.501.21.751.401.751.341 0 1.995-.404 4.963-1.215a61.637 61.637 0 0 1 4.336-.636 6.6 6.6 0 0 0 .114.406c.115 1.274.208 2.527.285 3.762l-.629-.52a272.263 272.263 0 0 1-5.988 2.835c-1.94.774-3.045 1.16-3.31 1.16-.114.116-.324.174-.626.174l-.116.232c.153.154.4.385.741.696.343.5.647.906.913 1.214.116.154.228.29.342.405h.457c.722 0 2.264-.847 4.621-2.547 1.33-1.08 2.53-2.22 3.595-3.416.151 2.431.23 4.902.23 7.412-2.056.155-2.424.15-4.857.46-1.863.269-3.27.404-4.222.404-1.521.155-2.966.232-4.336.232l-.114.23c.152.348.362.908.628 1.68.418 1.081.703 1.622.856 1.622.418 0 1.197-.172 2.339-.52.95-.31 2.586-.677 4.906-1.102 2.434-.463 3.259-.709 6.225-1.211 5.97-.888 12.53-1.486 19.683-1.795 2.738 0 4.468.078 5.192.231.113 0 .171-.076.171-.231-.267-.658-.495-1.507-.686-2.549z" fill="#050000"></path><path d="M46.95 23.6c-.185-.202-.322-.268-.455-.411-.535-.532-1.068-.717-1.226-1.189l-.429.074c-.07.3-.124.52-.159.67-.222.93-.245 1.187-2.154 5.763-1.085 2.415-2.188 4.585-3.311 6.516-2.313 3.809-4.716 6.69-7.21 8.644-.036.149.094.258.39.33 2.281.08 4.553-1.569 7.102-4.605 3.828-4.56 7.124-12.244 7.294-12.521.505-.831 1.05-1.596 1.191-2.193.027-.11.021-.171-.016-.18-.363-.444-.518-.433-1.017-.898M105.477 22.208a7.942 7.942 0 0 1-.851-.627c-.15-.126-.307-.18-.437-.259-.236-.17-.562-.322-.803-.322-.115 0-.177.388-.177.4 0 .508-.011 1.572-1.058 4.015-.657 1.532-1.211 2.105-2.012 2.935-1.697 1.762-2.924 1.933-5.139 3.247 0 .27.162.403.487.403 2.477-.131 4.302-.35 5.674-1.455 1.575-1.281 2.348-2.203 3.558-4.951 1.034-1.82 1.281-2.386 1.281-2.716 0-.24-.184-.453-.523-.67M124.03 30.769a72.236 72.236 0 0 1-.972-4.415c-.123-.119-.232-.18-.324-.18a83.151 83.151 0 0 1-.276 4.595c-.063.939-.233 1.667-.51 2.183-.184.243-.601.425-1.248.545-.678.214-1.942.32-3.793.32-3.636-.123-5.502-1.26-5.595-3.413.215-3.063.6-5.914 1.157-8.554-.094-.12-.17-.181-.232-.181a14.604 14.604 0 0 0-1.966-.53c-.343-.038-.362-.139-.61-.139a.337.337 0 0 0-.31.44c.053.442.066.759.066 1.321-.279 4.611-.417 7.4-.417 8.371 0 3.246 3.33 4.868 9.989 4.868 4.006 0 6.011-.41 6.011-1.229-.093-.757-.415-2.092-.97-4.002" fill="#050000"></path><path d="M115.693 19.599c1.823-.124 3.573-.077 5.249-.236.352.16.661.236.926.236.088 0 .132-.14.132-.422-.117-.346-.205-.956-.264-1.458-.031-.878-.162-1.314-.397-1.314-.323 0-2.176.232-5.558.702-2.383.282-4.934.444-6.727.567.06-2.631.13-4.945.217-7.107 1.206-.095 3.098-.243 4.745-.37a29.073 29.073 0 0 1 3.222-.187c.35 0 .675.17.925.122.137-.027.117-.183.089-.31a8.43 8.43 0 0 1-.266-1.364c-.03-.72-.148-1.158-.353-1.316-.206 0-1.367.268-3.484.802-1.677.25-3.581.44-4.787.658.06-1.722.103-2.976.133-3.76l.22-2.255c.147-.344.236-.848.265-1.505a1.175 1.175 0 0 0-.307-.377c-.15 0-.384-.06-.707-.186-1.207-.22-1.97-.39-2.294-.519l-.131.189c.203.877.365 2.491.484 4.842 0 1.38-.015 2.694-.044 3.949-1.06.126-1.137.32-2.667.478-.795.124-1.495.195-2.14.319h-.046c.325-.781.574-1.407.75-1.879.294-.783.515-1.3.663-1.551.263-.346.396-.58.396-.705 0-.252-.22-.376-.66-.376a11.772 11.772 0 0 1-1.324-.799c-.707-.345-1.118-.58-1.235-.705-.06 0-.132.063-.22.189.088.218.13.453.13.704 0 1.63-.456 3.76-1.367 6.392-.235 1.13-1.263 3.072-3.087 5.83 0 .126.118.187.352.187h.53c.588-.25 1.72-1.627 3.396-4.135.176-.377.354-.737.53-1.081.059.344.147.517.264.517.177 0 1.08-.172 2.727-.641 1.501-.252 1.684-.515 3.008-.797v7.021c-1.97.25-3.505.555-7.239.773-1.234.125-1.978.153-3.096.223-1.556.1-2.442.065-2.646.19 0 .157.06.42.176.798.088.251.204.674.353 1.27.058.534.162.798.309.798.322 0 1.365-.264 3.983-.798 1.645-.25 2.796-.354 3.576-.465.777-.11 1.533-.17 2.114-.241 1.117-.124 1.848-.25 2.88-.376.822-.125 6.508-.521 8.302-.521M88.701 5.556C89.628 4.03 90 3.16 90.081 2.199L90.505 2c.393.197.576.355 1.358.499.576.107 1.029.188 1.36.246.385.07.619.19.705.362.153.307.062.602-.275.886-.78.954-1.764 1.939-2.949 2.958-1.08.968-2.397 1.985-3.948 3.049A4.285 4.285 0 0 1 86 9.661c.658-.854 1.56-2.22 2.701-4.105" fill="#050000"></path><g transform="translate(82 12)"><mask id="b" fill="#fff"><use xlink:href="#a"></use></mask><path d="M24.623 24.087c-1.999-.397-6.597-1.182-7.267-1.332-4.246-.857-6.904-1.381-8.765-1.716.37-.298 1.522-1.973 2.118-2.756.706-.857 1.06-1.601 1.06-2.234 0-.56-.482-1.137-1.453-1.735a68.818 68.818 0 0 1-2.345-1.787c-1.006-.635-1.508-1.099-1.508-1.398 0-.41.317-1.08.951-2.011.186-.39.717-1.467.717-1.467 1.307-2.653 2.542-4.135 3.13-4.567.18.004.274-.1.278-.311.001-.12-.443-.568-1.334-1.343C9.493.723 9.049.307 8.868.18l-.27-.003a7.074 7.074 0 0 0-.332.718c-3.334.511-1.764.264-4.864.65-1.953.245-1.085.133-2.896.124-.245-.005-.366.114-.37.357.173.396.362.777.567 1.144.226.73.387 1.077.476 1.097.247.058.724-.244 3.486-.66 1.923-.288 2.289-.31 2.822-.307-.565 1.78-1.408 2.847-2.113 4.408 0 0-.6 1.393-1.12 2.033-1.08.597-1.189 1.32-1.189 1.731 0 .483.372.875 1.116 1.173.707.299 1.09.609 1.835 1.167.931.783 2.068 1.542 2.626 2.884 0 .493-.672 1.425-1.495 2.364-.17.195-.914 1.03-1.166 1.25a8.276 8.276 0 0 1-1.111.834c-1.49.86-2.422 1.74-3.763 1.887-.298.189-.446.43-.446.728.63.642.874.9 1.544 1.834.484.96.813 1.477 1.112 1.477.258 0 .688-.353 1.284-1.063 1.788-2.272 2.291-2.804 2.924-2.804.968 0 6.18.987 15.64 2.963 3.462.746 4.787 1.008 8.084 2.248 2.531 1.007 4.207 1.51 5.026 1.51.67-.147 1.415-.353 2.234-.615.707-.148 1.714-.447 3.017-.895 2.643-.93 3.965-1.45 3.965-1.564.224-.148.337-.371.337-.671-4.643-.18-7.903-.017-13.744-.779-2.905-.377-4.853-.847-7.461-1.313" fill="#050000" mask="url(#b)"></path></g><path d="M17.959 3.491c.072-.134.028-.3.028-.368 0-.07-.148-.177-.38-.35a2.642 2.642 0 0 1-.543-.514c-.084-.117-.18-.259-.356-.259-.17 0-.672.188-1.78.403-2 .388-3.71.696-5.066.833-1.58.223-2.92.404-4.022.54a68.43 68.43 0 0 1-3.222.32c-.06-.194-.203-.318-.43-.364a7.767 7.767 0 0 1-.938-.33c-.273-.122-.265.215-.237.37.07.41.15 1.016.197 1.821.063.956.094 2.057.094 3.301 0 1.447.102 7.036-.049 9.16-.022.343-.153 1.269-.206 1.424 0 .063.11.16.325.291.238.215.512.448.703.645.346.357.483.027.5-.089a3.24 3.24 0 0 0 .026-.421c0-2.07-.07-7.846-.07-9.868 0-.954.008-1.894.026-2.816 0-.587.032-1.204.06-1.848 1.276-.134 12.666-1.713 13.427-1.78l.204.207c.118 7.974.199 12.795.199 14.583-.018.19-.12.285-.306.285-.878 0-1.643-.125-2.367-.212-.086-.01-.239-.041-.279.058-.045.106-.016.173.037.225.034.037.257.163.325.194.64.312 1.26.62 1.858.932 1.415.749 1.304 1.107 1.837 1.136.218 0 .349-.243.349-.517-.153-7.08-.269-12.238-.229-15.673.01-.635.237-1.232.285-1.319" fill="#050000"></path><path d="M9.555 15.303c.056-.128.156-.29.264-.554.128-.288.157-.377.175-.445.049-.249-.23-.33-.277-.405-.536-.853-1.03-1.68-1.567-2.305.22-.678.43-1.458.629-2.34.22-1.089.366-1.843.442-2.295.043-.262.072-.268.1-.501.016-.13-.164-.218-.414-.286 0 0-.957-.32-1.034-.088-.022.06.048.338.048.403a21.33 21.33 0 0 1-.647 4.192c-.838-.827-1.683-1.452-2.536-1.877-.03-.015-.221-.098-.308-.024-.096.084-.016.214.012.243.855.943 1.664 1.777 2.448 2.878a14.727 14.727 0 0 1-2.803 4.816c-.182.208-.048.323.12.274 1.99-.627 3.358-3.87 3.45-4.056.725 1.037 1.153 1.774 1.413 2.333.184.396.432.156.485.037" fill="#050000"></path><path d="M14.509 16.412c.07-.15.172-.39.308-.72.102-.29.147-.426.164-.494.037-.12.03-.247-.108-.33a.392.392 0 0 1-.126-.156c-.763-1.41-1.449-2.45-2.279-3.43.537-2.204.778-4.082.89-4.63.114-.558.213-.883.213-1.029 0-.095-.056-.173-.168-.235-.05-.027-.698-.332-.846-.368-.152-.037-.329-.037-.405.117-.024.05.027.213.027.331-.082 1.717-.28 3.29-.597 4.717a10.13 10.13 0 0 0-2.414-1.94c-.075-.043-.354-.183-.433-.01-.095.206.334.64.41.72.723.739 1.418 1.59 2.088 2.554-.69 2.358-1.742 4.41-3.15 6.16-.157.197-.067.373.073.322 2.203-.713 3.718-4.835 3.868-5.292 1.114 1.537 1.818 2.872 2.138 3.651.118.29.306.152.347.062" fill="#050000"></path><g transform="translate(0 23)"><mask id="d" fill="#fff"><use xlink:href="#c"></use></mask><path d="M5.107 7.423V5.695c.96-.222 2.834-.417 3.7-.536 1.085-.135 2.752-.357 3.584-.424.198 0 .375-.008.556.06.235.054.338-.179.318-.253-.078-.274-.285-.557-.393-.948-.036-.07-.13-.143-.352-.102-.911.164-2.864.502-4.037.621-.905.135-3.348.366-3.348.296 0-.457.047-.765.065-1.24 0-.205-.163-.342-.489-.41a.363.363 0 0 0-.061-.063c.061-.012.13-.023.196-.038h.002c.76-.152 2.641-.358 3.727-.561 2.003-.256 4.481-.508 5.312-.508.07.068.162.168.27.305-.036 1.82-.092 2.971-.092 4.485-.669.066-3.08.364-5.122.637-1.373.185-3.293.338-3.836.407m13.329 3.004c-.325-.256-.556-.43-.92-.783-.215-.209-.376-.484-1.02-.289-.227.071-.527.109-.878.185-1.121.223-2.628.4-3.693.538-1.719.203-3.76.4-6.126.585.126-.137.254-.262.378-.382.58-.56.887-.921 1.03-.992.234-.118.326-.267.326-.334 0-.136-.035-.24-.109-.306-.107-.086-.27-.242-.362-.31.452-.136 5.648-.747 6.732-.747a.739.739 0 0 1-.055.153c-.017.034.037.084.163.155.09 0 .315.094.678.28.18.135.289.204.325.204.216 0 .326-.605.326-1.813.035-.424.118-4.356.198-4.827.012-.07.007-.176.054-.307.036-.095.081-.16.081-.228 0-.137-.08-.224-.216-.306-.124-.08-.207-.168-.477-.37-.415-.29-.411-.496-.686-.512-.29-.016-1.02.35-2.412.638-2.64.473-5.49.854-7.246 1.044-.952.083-1.883.14-2.11.14 0 0-.107.005-.103.111l-.006.005.006.009c.002.01-.002.012.002.022.032.125.173.272.264.537.143.372.24.558.29.558.103 0 .233-.031.46-.092.044-.013.2-.052.385-.095.034.195.068.412.103.652.054.495.043.853.043 1.533 0 1.292-.099 2.807-.19 2.874 0 .138.377.676.593.796.668-.16 1.496-.259 1.754-.302-.434.545-1.438 1.729-2.36 2.543A16.084 16.084 0 0 1 0 13.546c0 .12.134.18.405.18 1.267-.12 2.45-.62 3.55-1.506.181-.136.398-.315.652-.536.018.07.038.122.056.208.036.205.154.307.353.307.343 0 .427-.135 1.131-.238.33-.051 1.211-.187 1.519-.187-.054.087-.12.163-.19.23-.45.527-1.156 1.2-2.114 2.017a16.843 16.843 0 0 1-3.738 2.474c0 .137.115.204.35.204 1.303-.136 2.512-.646 3.634-1.53.576-.41 1.344-1.022 2.302-1.839.577-.544.92-.884 1.03-1.02.217-.135.324-.27.324-.408a.37.37 0 0 0-.081-.232c-.07-.064-.135-.1-.189-.1.83-.118 1.557-.235 2.605-.37a7.193 7.193 0 0 1 1.187-.118c-.129.204-.31.477-.544.816-.526.747-1.355 1.727-2.493 2.935a18.605 18.605 0 0 1-4.498 3.7c0 .135.118.202.353.202 1.058-.14 2.037-.608 3.035-1.247 1.767-1.129 3.429-3.248 3.984-3.957.666-.817 1.073-1.328 1.217-1.53.271-.29.41-.495.41-.613 0-.137-.03-.238-.083-.306a1.357 1.357 0 0 1-.299-.206c1.338-.152 2.273-.213 2.563-.213.18.07.35.212.513.435-.205 1.087-1.436 3.723-2.068 4.946-.648 1.159-1.191 1.736-1.624 1.736-.274 0-.986-.281-1.586-.638-.035-.02-.288-.157-.406-.056-.12.1.033.274.064.311.125.15.26.293.41.447.244.258 1.16 1.274 1.303 1.456.218.269.238.494.484.521.61.07 1.454-.613 2.196-2.245.362-.748.787-1.675 1.274-2.78.534-1.182.918-2.1 1.19-2.668.176-.37.553-.788.553-1.235 0-.085-.1-.33-.298-.466" fill="#050000" mask="url(#d)"></path></g><g transform="translate(134 13)" fill="#B0882F"><path d="M71.648 21.103c.883.734 1.402 1.055 2.01 1.206.183.13.085.283.085.283 0 .129-.184.315-.356.785-.126.346-.326.624-.396.823-.085.231-.185.363-.303.399-.213.063-.392-.024-.54-.263-.531-.583-1.063-1.296-1.596-2.137-.51-.771-1.027-1.693-1.552-2.766.083-.153.041-.297.153-.433.481.497 1.405 1.198 2.495 2.103"></path><path d="M80.07 13.55c-.078-.203 0-.271.23-.203 1.84 1.367 2.835 2.46 2.989 3.28.073.363.163.635-.165.896-.268.213-.6.499-1.215.745-.585.234-.883-.035-.805-.513 0-.615-.04-1.162-.114-1.64-2.914.958-6.088 1.492-7.121 2.208-.34.236-.555.252-.635-.1 0 0-.57-.85-.692-1.195-.079-.218.094-.29.094-.29.766-.067 1.105-.255 1.335-.598 1.224-2.118 2.267-4.507 3.266-7.583 0 0 .055-.17.24-.117.047.014.174.094.174.094l1.953 1.044.23.103c0 .068.176.254-.284.418l-.52.364c-1.688 2.46-2.624 4.239-4.005 5.81l5.921-.738c-.23-.956-.495-1.504-.876-1.984zm-16.428 5.674l-.5.375-.345-.158.25-12.12c0-2.185-.06-3.696-.212-4.791l.328-.231 2.449 1.059 4.139-.103 1-.854.188-.052 1.882 1.18.115.308s-.26.567-.69.95c-.026.39 0 5.2 0 5.2a41.486 41.486 0 0 0 5.42-8.818c.142-.312.288-.096.288-.096l1.995 1.123c.153 0 .166.205.014.41l-.7.45A59.939 59.939 0 0 1 77.19 5.58l7.08-.567.876-1.015c.059-.22.33-.063.33-.063l2.237 1.425c.151.069.175.328.023.465l-.124.047s-.401.56-.532.75c-.313.453-.316 1.078-.316 1.078l-.087 8.015.115 3.383c-.153 2.666-1.686 4.75-4.599 6.255-.23.136-.383.102-.46-.103.153-1.163-.23-1.948-1.148-2.358-.156-.068-.194-.138-.115-.205h.23c2.45.137 3.736-.936 3.582-3.466l.141-12.115c.002-.157.163-.84.05-.947-.082-.076-.203-.056-.484-.034-1.534.122-7.716.735-7.91.739-.079.002.285-.311.285-.311l.178-.196c-1.608 1.777-2.954 3.085-4.41 4.246v1.025l-.192 4.08c-.078.82-.267 1.475-1.417 2.295l-.428-.216-.037-13.118s.07-.33-.002-.4c-.076-.073-.42.012-.42.012l-4.135.115s-.552.348-.561.578c-.11 2.907-.154 9.016-.154 9.016-.078.889-.16 4.39-1.143 5.234zm2.855-10.517c-.078-.204 0-.308.23-.308l1.61.513c.305 0 .448.25.007 1.03l-.233 5.173c.23 4.239-2.736 9.945-7.36 11.175-.1.026-.54 0-.692 0-.078-.07-.078-.171 0-.308 4.445-2.735 6.724-6.541 6.439-12.346v-4.93zM16 18.001v.001c.027-.003.016-.002 0-.001"></path><path d="M28.075 23.026c-.04-.644-.17-1.263-.569-1.288-.526.04-1.576.161-3.112.357 0 0-1.982.287-4.174.475 0 0-3.093.157-4.006.163l-.021-6.836.129-.01.177-.008-.001-.004c.672-.049 1.732-.149 2.381-.195a34.724 34.724 0 0 1 3.582-.196c.391 0 .752.179 1.029.126.153-.027.125-.091.094-.224-.131-.425-.2-.372-.265-.896-.034-.751-.189-1.049-.417-1.213-.23 0-1.521.278-3.876.834-.783.11-1.991.259-2.787.354l-.014-.108c-.066.006-.025.001 0-.001.025-.532-.046-1.252-.033-1.576.066-.62.14-1.454.238-2.403.163-.359.261-.882.294-1.568a1.255 1.255 0 0 0-.343-.393c-.164 0-.298.004-.844-.092-1.341-.227-1.353-.193-1.713-.324l-.147.196c.222.895.328 2.259.458 4.623l.003.093-.001 1.097.119 8.81c-1.272.164-3.938.365-4.23.292.07-1.259.127-6.085.136-6.292l.194-1.86c.129-.284.207-.698.233-1.241a1.001 1.001 0 0 0-.271-.31c-.13 0-.337-.051-.622-.155-1.06-.18-1.564-.328-1.849-.431l-.116.155c.18.723.323 2.054.427 3.993 0 .274.307 5.256.334 6.218l-.091.006c-1.646.128-2.688.293-3.52.24-1.341.048-2.569-.225-3.768-.302L1 23.325c.114.307.267.539.457 1.219.306.955.526 1.437.66 1.445.366.024 1.058-.082 2.076-.317.848-.214 1.73-.376 3.781-.645 1.686-.22 3.033-.31 5.469-.562 0 0 4.406-.5 10.563-.106 2.396.153 3.907.215 4.531.387.1.007.154-.056.162-.189-.197-.58-.367-.68-.624-1.531"></path><path d="M29.804 11.69c-4.741-.463-11.523-5.723-14.358-9.414l.026-.18c.018-.013.03-.032.049-.045l.575-.513c.23-.205.23-.341 0-.41L13.222 0c-.369.705-.784 1.295-1.185 2.046-.351.658-.877 1.405-1.286 2.115C9.8 5.812 7.997 8.055 7.196 8.917c-2.175 2.338-4.104 4.166-7.081 6.052-.078.069-.115.171-.115.308.076.069 1.396.12 1.55.052 3.638-2.097 5.61-3.824 8.422-6.746.63-.654 1.404-1.383 1.953-2.14.541-.745 1.154-1.545 1.657-2.203.502-.658.981-1.161 1.285-1.456 2.527 4.874 7.106 8.543 11.488 11.263.541.337 3.146-1.684 3.334-1.947.182-.255.421-.38.115-.41M58.96 22.835c.02-.807-.084-1.218-.314-1.232-.317-.019-2.145.085-5.484.312-.727.036-3.076.047-4.826.119l.885-19.66c.126-.207.442-.935.395-1.154L49.44.935 46.5 0l-.09.148.256 4.613-.128 17.345c-1.227.048-2.52.096-3.79.138L42.703 2.52c.126-.207.442-.935.396-1.154l-.178-.285-2.747-.816-.09.148.205 4.466.67 17.42c-1.826.187-3.532.334-4.615.327-1.216.04-1.752.021-2.852.019-1.53-.003-2.284-.339-2.49-.238-.01.145.033.392.126.745.072.236.13.497.24 1.052.028.494.114.743.258.752.316.02.817-.217 3.411-.549 1.626-.131 2.612-.324 3.38-.379.77-.053 1.864-.12 2.438-.152 1.1-.047 1.942-.072 2.958-.125.813-.065 7.215.008 8.972.116 1.793-.004 3.522.338 5.305.43.336.166.634.256.893.271.086.006.137-.12.153-.38-.095-.323-.147-.89-.176-1.353"></path><path d="M40.617 10.463L40.051 10a251.12 251.12 0 0 1-5.399 2.518c-1.749.685-2.744 1.027-2.983 1.027-.103.103-.292.155-.566.155l-.103.205c.136.137.36.342.669.617.308.445.488.584.727.858.104.137.206.257.309.359h.412c.65 0 2.04-.752 4.165-2.259 1.2-.959 2.376-1.75 3.335-2.812.033.521-.031-.698 0-.205M57.094 11.231a3.83 3.83 0 0 1-.854-.652c-.67-.369-.967-.446-1.034-.579h-.252c-.937 1.205-3.214 2.744-6.832 4.616.033-.639-.132 1.671-.122 1.432.335-.133.872-.334 1.61-.602 2.511-.936 4.168-1.605 4.972-2.007.871-.301 1.525-.585 1.96-.853.635-.234.954-.552.954-.954 0-.133-.134-.267-.402-.401"></path></g></g></svg></svg>